<svg width="185" height="65" viewBox="0 0 185 65" fill="none" xmlns="http://www.w3.org/2000/svg">
<path d="M0.0253906 21L7.02539 19L8.02539 20L8.52539 20.5L9.02539 21L9.52539 21.5L10.0254 22L11.0254 23L12.0254 24L12.5254 24.5L14.0254 25L16.0254 25.5L18.0254 26V42V43H17.0254L16.5254 43.5L16.0254 44L15.5254 45V47L16.0254 48V65L0.0253906 55V21Z" fill="#19A8E6"/>
<path d="M38.0254 21L31.0254 19L30.0254 20L29.5254 20.5L29.0254 21L28.5254 21.5L28.0254 22L27.0254 23L26.0254 24L25.5254 24.5L24.0254 25L22.0254 25.5L20.0254 26V42V43H21.0254L21.5254 43.5L22.0254 44L22.5254 45V47L22.0254 48V65L38.0254 55V21Z" fill="#00D200"/>
<path d="M38.0254 18.8725C28.7821 20.4027 29.0053 7.65102 18.5119 7.65102C8.01847 7.65102 9.26863 20.4027 0.0253906 18.8725C0.0253906 8.44952 8.53198 0 19.0254 0C29.5188 0 38.0254 8.44952 38.0254 18.8725Z" fill="#C2C2C2"/>
<path d="M81.3014 26.4L74.8054 46H70.9414L66.0974 31.496L61.1694 46H57.2774L50.7814 26.4H54.5614L59.4334 41.296L64.5014 26.4H67.8614L72.8174 41.38L77.8294 26.4H81.3014ZM84.0275 31.048H87.5275V46H84.0275V31.048ZM85.7915 28.584C85.1568 28.584 84.6248 28.388 84.1955 27.996C83.7662 27.5853 83.5515 27.0813 83.5515 26.484C83.5515 25.8867 83.7662 25.392 84.1955 25C84.6248 24.5893 85.1568 24.384 85.7915 24.384C86.4262 24.384 86.9582 24.58 87.3875 24.972C87.8168 25.3453 88.0315 25.8213 88.0315 26.4C88.0315 27.016 87.8168 27.5387 87.3875 27.968C86.9768 28.3787 86.4448 28.584 85.7915 28.584ZM103.757 43.2V46H90.8492V43.788L99.0532 33.848H91.0172V31.048H103.533V33.26L95.3012 43.2H103.757ZM120.781 38.608C120.781 38.8507 120.762 39.196 120.725 39.644H108.993C109.198 40.7453 109.73 41.6227 110.589 42.276C111.466 42.9107 112.549 43.228 113.837 43.228C115.479 43.228 116.833 42.6867 117.897 41.604L119.773 43.76C119.101 44.5627 118.251 45.1693 117.225 45.58C116.198 45.9907 115.041 46.196 113.753 46.196C112.11 46.196 110.663 45.8693 109.413 45.216C108.162 44.5627 107.191 43.6573 106.501 42.5C105.829 41.324 105.493 39.9987 105.493 38.524C105.493 37.068 105.819 35.7613 106.473 34.604C107.145 33.428 108.069 32.5133 109.245 31.86C110.421 31.2067 111.746 30.88 113.221 30.88C114.677 30.88 115.974 31.2067 117.113 31.86C118.27 32.4947 119.166 33.4 119.801 34.576C120.454 35.7333 120.781 37.0773 120.781 38.608ZM113.221 33.68C112.101 33.68 111.149 34.016 110.365 34.688C109.599 35.3413 109.133 36.2187 108.965 37.32H117.449C117.299 36.2373 116.842 35.36 116.077 34.688C115.311 34.016 114.359 33.68 113.221 33.68Z" fill="#19A8E5"/>
<path d="M130.515 46.28C129.003 46.28 127.537 46.0653 126.119 45.636C124.719 45.2067 123.608 44.6373 122.787 43.928L124.047 41.1C124.849 41.7347 125.829 42.2573 126.987 42.668C128.163 43.06 129.339 43.256 130.515 43.256C131.971 43.256 133.053 43.0227 133.763 42.556C134.491 42.0893 134.855 41.4733 134.855 40.708C134.855 40.148 134.649 39.6907 134.239 39.336C133.847 38.9627 133.343 38.6733 132.727 38.468C132.111 38.2627 131.271 38.0293 130.207 37.768C128.713 37.4133 127.5 37.0587 126.567 36.704C125.652 36.3493 124.859 35.7987 124.187 35.052C123.533 34.2867 123.207 33.26 123.207 31.972C123.207 30.8893 123.496 29.9093 124.075 29.032C124.672 28.136 125.559 27.4267 126.735 26.904C127.929 26.3813 129.385 26.12 131.103 26.12C132.297 26.12 133.473 26.2693 134.631 26.568C135.788 26.8667 136.787 27.296 137.627 27.856L136.479 30.684C135.62 30.18 134.724 29.7973 133.791 29.536C132.857 29.2747 131.952 29.144 131.075 29.144C129.637 29.144 128.564 29.3867 127.855 29.872C127.164 30.3573 126.819 31.0013 126.819 31.804C126.819 32.364 127.015 32.8213 127.407 33.176C127.817 33.5307 128.331 33.8107 128.947 34.016C129.563 34.2213 130.403 34.4547 131.467 34.716C132.923 35.052 134.117 35.4067 135.051 35.78C135.984 36.1347 136.777 36.6853 137.431 37.432C138.103 38.1787 138.439 39.1867 138.439 40.456C138.439 41.5387 138.14 42.5187 137.543 43.396C136.964 44.2733 136.077 44.9733 134.883 45.496C133.688 46.0187 132.232 46.28 130.515 46.28ZM147.384 30.88C149.587 30.88 151.267 31.412 152.424 32.476C153.6 33.5213 154.188 35.108 154.188 37.236V46H150.884V44.18C150.455 44.8333 149.839 45.3373 149.036 45.692C148.252 46.028 147.3 46.196 146.18 46.196C145.06 46.196 144.08 46.0093 143.24 45.636C142.4 45.244 141.747 44.712 141.28 44.04C140.832 43.3493 140.608 42.5747 140.608 41.716C140.608 40.372 141.103 39.2987 142.092 38.496C143.1 37.6747 144.678 37.264 146.824 37.264H150.688V37.04C150.688 35.9947 150.371 35.192 149.736 34.632C149.12 34.072 148.196 33.792 146.964 33.792C146.124 33.792 145.294 33.9227 144.472 34.184C143.67 34.4453 142.988 34.8093 142.428 35.276L141.056 32.728C141.84 32.1307 142.783 31.6733 143.884 31.356C144.986 31.0387 146.152 30.88 147.384 30.88ZM146.908 43.648C147.786 43.648 148.56 43.452 149.232 43.06C149.923 42.6493 150.408 42.0707 150.688 41.324V39.588H147.076C145.06 39.588 144.052 40.2507 144.052 41.576C144.052 42.2107 144.304 42.7147 144.808 43.088C145.312 43.4613 146.012 43.648 146.908 43.648ZM164.716 27.856C163.241 27.856 162.504 28.6587 162.504 30.264V31.16H166.62V33.96H162.616V46H159.116V33.96H156.652V31.16H159.116V30.208C159.116 28.6027 159.583 27.3427 160.516 26.428C161.449 25.4947 162.765 25.028 164.464 25.028C165.808 25.028 166.863 25.2987 167.628 25.84L166.648 28.472C166.051 28.0613 165.407 27.856 164.716 27.856ZM182.773 38.608C182.773 38.8507 182.755 39.196 182.717 39.644H170.985C171.191 40.7453 171.723 41.6227 172.581 42.276C173.459 42.9107 174.541 43.228 175.829 43.228C177.472 43.228 178.825 42.6867 179.889 41.604L181.765 43.76C181.093 44.5627 180.244 45.1693 179.217 45.58C178.191 45.9907 177.033 46.196 175.745 46.196C174.103 46.196 172.656 45.8693 171.405 45.216C170.155 44.5627 169.184 43.6573 168.493 42.5C167.821 41.324 167.485 39.9987 167.485 38.524C167.485 37.068 167.812 35.7613 168.465 34.604C169.137 33.428 170.061 32.5133 171.237 31.86C172.413 31.2067 173.739 30.88 175.213 30.88C176.669 30.88 177.967 31.2067 179.105 31.86C180.263 32.4947 181.159 33.4 181.793 34.576C182.447 35.7333 182.773 37.0773 182.773 38.608ZM175.213 33.68C174.093 33.68 173.141 34.016 172.357 34.688C171.592 35.3413 171.125 36.2187 170.957 37.32H179.441C179.292 36.2373 178.835 35.36 178.069 34.688C177.304 34.016 176.352 33.68 175.213 33.68Z" fill="#00D200"/>
</svg>
