<svg width="20" height="20" viewBox="0 0 20 20" fill="none" xmlns="http://www.w3.org/2000/svg">
<g clip-path="url(#clip0_119_1693)">
<path d="M4.14841 9.38965C3.92627 9.38965 3.71647 9.47607 3.56015 9.6345L0.250628 12.939C0.0922483 13.0975 0.00585938 13.3053 0.00585938 13.5275C0.00585938 13.7497 0.0922483 13.9596 0.250628 14.116C0.409008 14.2744 0.618809 14.3609 0.840952 14.3609C1.06309 14.3609 1.27495 14.2744 1.43128 14.116L4.73668 10.8094C4.89506 10.651 4.98145 10.4431 4.98145 10.2209C4.98145 9.9987 4.89506 9.78883 4.73668 9.63245C4.58036 9.47607 4.37055 9.38965 4.14841 9.38965V9.38965Z" fill="#474948"/>
<path d="M19.7176 0.765433C19.3967 0.286009 18.866 0 18.2983 0C18.0741 0 17.8541 0.0452675 17.6401 0.133745L5.27008 5.22017C4.60571 5.49384 4.18817 6.13581 4.20873 6.85803C4.2293 7.57614 4.68387 8.19343 5.36881 8.428L9.99885 10.0082L11.5826 14.6399C11.8233 15.3457 12.4589 15.8004 13.2055 15.8004C13.9131 15.8004 14.5199 15.393 14.7893 14.7387L19.876 2.36214C20.0981 1.82511 20.0385 1.24074 19.7176 0.765433V0.765433ZM13.1582 14.105L11.4428 9.08643C11.3605 8.84158 11.1672 8.64816 10.9224 8.56586L5.90566 6.85186C5.88715 6.84569 5.87686 6.84157 5.87275 6.80865C5.87481 6.77573 5.88303 6.77161 5.90154 6.76338L18.2675 1.67901C18.286 1.67284 18.2942 1.67078 18.2942 1.67078C18.3025 1.67078 18.3169 1.67696 18.3292 1.69548C18.3313 1.69753 18.3313 1.69959 18.3333 1.70165C18.3374 1.70576 18.3374 1.70988 18.3374 1.70988C18.3374 1.70988 18.3374 1.71811 18.3313 1.73457C18.3313 1.73663 18.3292 1.73869 18.3292 1.74074L13.2425 14.107C13.2343 14.1276 13.2302 14.1338 13.2014 14.1338C13.1685 14.1358 13.1644 14.1235 13.1582 14.105V14.105Z" fill="#474948"/>
<path d="M9.18992 15.2656L5.88658 18.5701C5.72614 18.7285 5.6377 18.9384 5.6377 19.1648C5.6377 19.387 5.72408 19.5969 5.88246 19.7512C6.04084 19.9076 6.24859 19.994 6.47279 19.994C6.69699 19.994 6.90679 19.9076 7.06311 19.7491L10.3685 16.4425C10.6935 16.1174 10.6935 15.5886 10.3685 15.2635C10.0435 14.9405 9.51491 14.9405 9.18992 15.2656V15.2656Z" fill="#474948"/>
<path d="M6.25111 14.596C6.47531 14.596 6.68511 14.5096 6.84143 14.3512L9.42898 11.7606C9.58736 11.6022 9.67375 11.3944 9.67375 11.1722C9.67375 10.9499 9.58736 10.7401 9.42898 10.5837C9.104 10.2586 8.57538 10.2586 8.25039 10.5837L5.66078 13.1742C5.5024 13.3326 5.41602 13.5405 5.41602 13.7627C5.41602 13.9849 5.5024 14.1948 5.66078 14.3512C5.81916 14.5096 6.02897 14.596 6.25111 14.596V14.596Z" fill="#474948"/>
</g>
<defs>
<clipPath id="clip0_119_1693">
<rect width="20" height="20" fill="white"/>
</clipPath>
</defs>
</svg>
