<svg width="21" height="20" viewBox="0 0 21 20" fill="none" xmlns="http://www.w3.org/2000/svg">
<path d="M4.14255 9.38965C3.92041 9.38965 3.71061 9.47607 3.55429 9.6345L0.244769 12.939C0.0863889 13.0975 0 13.3053 0 13.5275C0 13.7497 0.0863889 13.9596 0.244769 14.116C0.403148 14.2744 0.61295 14.3609 0.835093 14.3609C1.05724 14.3609 1.26909 14.2744 1.42542 14.116L4.73082 10.8094C4.8892 10.651 4.97559 10.4431 4.97559 10.2209C4.97559 9.9987 4.8892 9.78883 4.73082 9.63245C4.5745 9.47607 4.3647 9.38965 4.14255 9.38965Z" fill="black"/>
<path d="M19.7127 0.765433C19.3918 0.286009 18.8612 0 18.2935 0C18.0693 0 17.8492 0.0452675 17.6353 0.133745L5.2652 5.22017C4.60083 5.49383 4.18328 6.13581 4.20385 6.85803C4.22442 7.57614 4.67899 8.19343 5.36393 8.428L9.99396 10.0082L11.5778 14.6399C11.8184 15.3457 12.454 15.8004 13.2006 15.8004C13.9082 15.8004 14.515 15.393 14.7844 14.7387L19.8711 2.36214C20.0932 1.82511 20.0336 1.24074 19.7127 0.765433ZM13.1533 14.105L11.4379 9.08643C11.3556 8.84158 11.1623 8.64816 10.9175 8.56586L5.90078 6.85186C5.88226 6.84569 5.87198 6.84157 5.86787 6.80865C5.86992 6.77573 5.87815 6.77161 5.89666 6.76338L18.2626 1.67901C18.2811 1.67284 18.2894 1.67078 18.2894 1.67078C18.2976 1.67078 18.312 1.67696 18.3243 1.69548C18.3264 1.69753 18.3264 1.69959 18.3284 1.70165C18.3325 1.70576 18.3325 1.70988 18.3325 1.70988C18.3325 1.70988 18.3325 1.71811 18.3264 1.73457C18.3264 1.73663 18.3243 1.73869 18.3243 1.74074L13.2377 14.107C13.2294 14.1276 13.2253 14.1338 13.1965 14.1338C13.1636 14.1358 13.1595 14.1235 13.1533 14.105Z" fill="black"/>
<path d="M9.18504 15.2656L5.88169 18.5701C5.72126 18.7285 5.63281 18.9384 5.63281 19.1648C5.63281 19.387 5.7192 19.5969 5.87758 19.7512C6.03596 19.9076 6.24371 19.994 6.46791 19.994C6.69211 19.994 6.90191 19.9076 7.05823 19.7491L10.3636 16.4425C10.6886 16.1174 10.6886 15.5886 10.3636 15.2635C10.0386 14.9405 9.51003 14.9405 9.18504 15.2656Z" fill="black"/>
<path d="M6.24525 14.596C6.46945 14.596 6.67925 14.5096 6.83557 14.3512L9.42312 11.7606C9.5815 11.6022 9.66789 11.3944 9.66789 11.1722C9.66789 10.9499 9.5815 10.7401 9.42312 10.5837C9.09814 10.2586 8.56952 10.2586 8.24453 10.5837L5.65492 13.1742C5.49654 13.3326 5.41016 13.5405 5.41016 13.7627C5.41016 13.9849 5.49654 14.1948 5.65492 14.3512C5.8133 14.5096 6.02311 14.596 6.24525 14.596Z" fill="black"/>
</svg>
